<svg width="131" height="22" viewBox="0 0 131 22" fill="none" xmlns="http://www.w3.org/2000/svg">
<g clip-path="url(#clip0_1503_277)">
<path d="M15.5866 8.6385C15.5866 9.07963 15.5131 9.52076 15.5131 9.96189H4.85244C5.14652 11.5794 6.24935 12.4616 7.79331 12.4616C8.96966 12.4616 9.92544 11.947 10.3666 11.1382H15.2925C14.2632 14.3732 11.3959 16.4318 7.79331 16.4318C3.30848 16.3583 0 13.1233 0 8.71203C0 4.37424 3.30848 1.13928 7.79331 1.13928C12.3517 1.13928 15.5866 4.44776 15.5866 8.6385ZM4.92596 7.16807H10.7342C10.293 5.77115 9.26374 4.96241 7.79331 4.96241C6.32287 4.96241 5.29357 5.77115 4.92596 7.16807Z" fill="#333333"/>
<path d="M48.0832 8.63845C48.0832 9.07958 48.0097 9.52071 48.0097 9.96184H37.349C37.6431 11.5793 38.7459 12.4616 40.2899 12.4616C41.4662 12.4616 42.422 11.9469 42.8631 11.1382H47.7891C46.7598 14.3731 43.8925 16.4318 40.2899 16.4318C35.8051 16.4318 32.4966 13.1968 32.4966 8.78549C32.4966 4.37419 35.8051 1.21275 40.2899 1.21275C44.9218 1.13923 48.0832 4.44771 48.0832 8.63845ZM37.4225 7.16801H43.2308C42.7896 5.7711 41.7603 4.96236 40.2899 4.96236C38.8195 4.96236 37.8637 5.7711 37.4225 7.16801Z" fill="#333333"/>
<path d="M58.8909 1.50684V5.99166H56.9793C55.2148 5.99166 54.4795 6.72688 54.4795 8.56493V15.8436H49.5536V1.58036H52.8621L53.5973 3.19784C54.6266 2.02149 55.8029 1.58036 57.5675 1.58036H58.8909V1.50684Z" fill="#333333"/>
<path d="M75.8009 1.58044L69.8456 15.2555C67.9341 19.5933 66.1696 21.2108 62.4935 21.2108H60.8025V16.9465H62.1259C64.0374 16.9465 64.5521 16.4318 65.2138 14.6673L59.332 1.58044H64.6991L67.64 9.44727L70.4338 1.58044H75.8009Z" fill="#333333"/>
<path d="M92.3433 8.78558C92.3433 13.2704 89.2554 16.4318 84.8441 16.4318C83.5207 16.4318 82.3443 16.0642 81.3886 15.4761V21.1372H76.5361V1.58045H79.9181L80.5063 2.68327C81.6827 1.65397 83.2266 1.0658 84.9176 1.0658C89.2554 1.13932 92.3433 4.30075 92.3433 8.78558ZM87.4174 8.78558C87.4174 6.87402 86.094 5.55062 84.1824 5.55062C82.2708 5.55062 80.9474 6.94754 80.9474 8.78558C80.9474 10.6971 82.2708 12.0205 84.1824 12.0205C86.0204 12.0205 87.4174 10.6236 87.4174 8.78558Z" fill="#333333"/>
<path d="M109.842 1.58045V15.8437H106.018L105.577 14.8144C104.401 15.7702 102.93 16.2848 101.239 16.2848C96.9017 16.2848 93.7402 13.1234 93.7402 8.63854C93.7402 4.22723 96.8281 1.0658 101.239 1.0658C102.93 1.0658 104.401 1.65397 105.577 2.60975L106.092 1.50693L109.842 1.58045ZM105.136 8.78558C105.136 6.94754 103.813 5.55062 101.901 5.55062C100.063 5.55062 98.6662 6.94754 98.6662 8.78558C98.6662 10.6236 99.9896 12.0205 101.901 12.0205C103.813 12.0205 105.136 10.6236 105.136 8.78558Z" fill="#333333"/>
<path d="M127.854 1.58044L121.899 15.2555C119.988 19.5933 118.223 21.2108 114.547 21.2108H112.856V16.9465H114.179C116.091 16.9465 116.606 16.4318 117.267 14.6673L111.385 1.58044H116.753L119.767 9.44727L122.561 1.58044H127.854Z" fill="#333333"/>
</g>
<path d="M31.7257 3.43134L29.1614 1.17273C28.5581 0.570432 27.5022 0.721006 27.0497 1.3233L19.8094 9.90602L15.5859 6.29224C14.9826 5.84052 13.9267 5.84052 13.4742 6.44282L11.2116 9.15315C10.6083 9.75544 10.7591 10.8095 11.3624 11.2612L19.2061 17.8864C19.5077 18.1876 19.9602 18.3382 20.4128 18.1876C20.8945 18.0273 21.5079 17.3288 21.9039 16.8454L31.7257 5.53937C32.4799 4.93708 32.329 3.88306 31.7257 3.43134Z" fill="url(#paint0_linear_1503_277)"/>
<path d="M36.0671 3.46293L33.5028 1.20432C32.8995 0.602028 31.8436 0.752602 31.3911 1.3549L24.1508 9.93761L19.9273 6.32384C19.324 5.87212 18.2681 5.87212 17.8156 6.62499L15.553 9.18474C15.1005 9.78704 15.1005 10.8411 15.7039 11.2928L23.5475 17.918C23.8492 18.2192 24.3257 18.3618 24.7542 18.2192C25.1827 18.0766 25.5063 17.6092 25.9653 17.0822L36.0671 5.57097C36.8213 4.96867 36.6704 4.06523 36.0671 3.46293Z" fill="url(#paint1_linear_1503_277)"/>
<defs>
<linearGradient id="paint0_linear_1503_277" x1="21.5319" y1="0.789307" x2="21.5319" y2="18.2467" gradientUnits="userSpaceOnUse">
<stop stop-color="#1792C7"/>
<stop offset="1" stop-color="#00B8F0"/>
</linearGradient>
<linearGradient id="paint1_linear_1503_277" x1="25.9041" y1="0.820923" x2="25.9041" y2="18.2748" gradientUnits="userSpaceOnUse">
<stop stop-color="#00B8F0"/>
<stop offset="0.0001" stop-color="#00B8F0"/>
<stop offset="0.739583" stop-color="#B2EEFC"/>
</linearGradient>
<clipPath id="clip0_1503_277">
<rect width="130.06" height="20.0714" fill="white" transform="translate(0 1.13928)"/>
</clipPath>
</defs>
</svg>
