<svg width="446" height="1126" viewBox="0 0 446 1126" fill="none" xmlns="http://www.w3.org/2000/svg">
<path d="M-305.225 325.748L-305.214 325.737L-305.204 325.725L-205.814 213.977L-205.801 213.962L-205.789 213.946C-186.084 187.882 -140.12 181.395 -113.883 214.02L-113.853 214.057L-113.817 214.088L415.551 661.69C415.554 661.692 415.556 661.694 415.558 661.695C436.437 680.72 442.943 701.009 442.63 718.628C442.316 736.267 435.167 751.267 428.676 759.674C428.673 759.677 428.671 759.68 428.668 759.683L137.131 1101.49L137.122 1101.5L137.113 1101.52C127.271 1114.53 110.851 1122.69 93.5853 1124.31C76.3251 1125.93 58.276 1121.02 45.1657 1107.98L45.1496 1107.96L45.1322 1107.95L-73.98 1009.21L-73.9899 1009.2L-74.0001 1009.19C-87.0814 999.432 -93.6499 983.146 -94.4612 965.98C-95.2723 948.821 -90.3241 930.862 -80.4695 917.82L78.5468 733.772L78.8787 733.388L78.4895 733.062L-298.697 417.097L-298.708 417.088L-298.719 417.08C-311.824 407.302 -320.032 390.991 -321.665 373.843C-323.297 356.699 -318.353 338.771 -305.225 325.748Z" stroke="#3898FE" stroke-opacity="0.11"/>
<path d="M-305.098 134.759L-305.087 134.748L-305.076 134.736L-205.687 22.9873L-205.673 22.9724L-205.661 22.9565C-185.956 -3.10759 -139.993 -9.59417 -113.756 23.0302L-113.726 23.0677L-113.689 23.0987L415.679 470.7C415.681 470.702 415.683 470.704 415.685 470.706C436.565 489.73 443.071 510.019 442.758 527.639C442.444 545.277 435.295 560.278 428.803 568.685C428.801 568.688 428.798 568.691 428.796 568.694L137.259 910.503L137.249 910.514L137.24 910.526C127.398 923.544 110.978 931.699 93.7128 933.321C76.4526 934.943 58.4036 930.03 45.2933 916.989L45.2772 916.973L45.2598 916.958L-73.8525 818.218L-73.8623 818.21L-73.8726 818.203C-86.9539 808.443 -93.5223 792.156 -94.3337 774.991C-95.1447 757.832 -90.1966 739.873 -80.342 726.83L78.6744 542.783L79.0063 542.399L78.6171 542.073L-298.569 226.108L-298.58 226.099L-298.591 226.09C-311.697 216.313 -319.905 200.002 -321.537 182.853C-323.169 165.71 -318.225 147.782 -305.098 134.759Z" stroke="#3898FE" stroke-opacity="0.11"/>
</svg>
