<svg width="20" height="20" viewBox="0 0 20 20" fill="none" xmlns="http://www.w3.org/2000/svg">
<path d="M19.9453 5.88006C19.8984 4.81738 19.7266 4.0868 19.4804 3.45374C19.2265 2.78176 18.8358 2.18014 18.3239 1.68002C17.8238 1.1721 17.2182 0.777435 16.554 0.527447C15.9173 0.281274 15.1905 0.109427 14.1278 0.0625732C13.0572 0.0117516 12.7173 0 10.0019 0C7.28658 0 6.9467 0.0117516 5.88005 0.0586052C4.81738 0.105459 4.08679 0.277459 3.45389 0.523479C2.78176 0.777435 2.18014 1.16814 1.68001 1.68002C1.1721 2.18014 0.777587 2.78573 0.527446 3.44992C0.281274 4.0868 0.109427 4.81341 0.0625732 5.87609C0.0117515 6.9467 0 7.28658 0 10.002C0 12.7173 0.0117515 13.0572 0.0586052 14.1239C0.105459 15.1865 0.277459 15.9171 0.523631 16.5502C0.777587 17.2221 1.1721 17.8238 1.68001 18.3239C2.18014 18.8318 2.78573 19.2265 3.44992 19.4765C4.08679 19.7226 4.81341 19.8945 5.87624 19.9413C6.94273 19.9883 7.28276 19.9999 9.99813 19.9999C12.7135 19.9999 13.0534 19.9883 14.12 19.9413C15.1827 19.8945 15.9133 19.7226 16.5462 19.4765C17.8903 18.9568 18.953 17.8941 19.4726 16.5502C19.7187 15.9133 19.8907 15.1865 19.9375 14.1239C19.9844 13.0572 19.9961 12.7173 19.9961 10.002C19.9961 7.28658 19.9921 6.9467 19.9453 5.88006ZM18.1443 14.0457C18.1012 15.0225 17.9371 15.5499 17.8004 15.9015C17.4643 16.7728 16.7728 17.4643 15.9015 17.8004C15.5499 17.9372 15.0186 18.1012 14.0457 18.1441C12.9908 18.1911 12.6744 18.2027 10.0059 18.2027C7.3374 18.2027 7.01705 18.1911 5.96598 18.1441C4.98922 18.1012 4.46178 17.9372 4.11015 17.8004C3.67656 17.6402 3.28189 17.3862 2.96154 17.0541C2.62945 16.7298 2.37549 16.3391 2.21524 15.9055C2.0785 15.5539 1.91444 15.0225 1.87155 14.0497C1.82454 12.9948 1.81294 12.6783 1.81294 10.0097C1.81294 7.34122 1.82454 7.02087 1.87155 5.96995C1.91444 4.99319 2.0785 4.46575 2.21524 4.11412C2.37549 3.68038 2.62945 3.28586 2.96551 2.96536C3.28967 2.63327 3.68037 2.37931 4.11411 2.21921C4.46574 2.08247 4.99716 1.9184 5.96994 1.87537C7.02484 1.82851 7.34136 1.81676 10.0097 1.81676C12.6822 1.81676 12.9986 1.82851 14.0497 1.87537C15.0264 1.9184 15.5539 2.08247 15.9055 2.21921C16.3391 2.37931 16.7338 2.63327 17.0541 2.96536C17.3862 3.28967 17.6402 3.68038 17.8004 4.11412C17.9371 4.46575 18.1012 4.99701 18.1443 5.96995C18.1911 7.02484 18.2029 7.34122 18.2029 10.0097C18.2029 12.6783 18.1911 12.9908 18.1443 14.0457Z" fill="#021442"/>
<path fill-rule="evenodd" clip-rule="evenodd" d="M18.1443 14.0457C18.1012 15.0225 17.9371 15.5499 17.8004 15.9015C17.4643 16.7728 16.7728 17.4643 15.9015 17.8004C15.5499 17.9372 15.0186 18.1012 14.0457 18.1441C12.9908 18.1911 12.6744 18.2027 10.0059 18.2027C7.3374 18.2027 7.01705 18.1911 5.96598 18.1441C4.98922 18.1012 4.46178 17.9372 4.11015 17.8004C3.67656 17.6402 3.28189 17.3862 2.96154 17.0541C2.62945 16.7298 2.37549 16.3391 2.21524 15.9055C2.0785 15.5539 1.91444 15.0225 1.87155 14.0497C1.82454 12.9948 1.81294 12.6783 1.81294 10.0097C1.81294 7.34122 1.82454 7.02087 1.87155 5.96995C1.91444 4.99319 2.0785 4.46575 2.21524 4.11412C2.37549 3.68038 2.62945 3.28586 2.96551 2.96536C3.28967 2.63327 3.68037 2.37931 4.11411 2.21921C4.46574 2.08247 4.99716 1.9184 5.96994 1.87537C7.02484 1.82851 7.34136 1.81676 10.0097 1.81676C12.6822 1.81676 12.9986 1.82851 14.0497 1.87537C15.0264 1.9184 15.5539 2.08247 15.9055 2.21921C16.3391 2.37931 16.7338 2.63327 17.0541 2.96536C17.3862 3.28967 17.6402 3.68038 17.8004 4.11412C17.9371 4.46575 18.1012 4.99701 18.1443 5.96995C18.1911 7.02484 18.2029 7.34122 18.2029 10.0097C18.2029 12.6783 18.1911 12.9908 18.1443 14.0457ZM4.86426 10.002C4.86426 7.16543 7.16558 4.86426 10.002 4.86426C12.8385 4.86426 15.1397 7.16543 15.1397 10.002C15.1397 12.8385 12.8385 15.1397 10.002 15.1397C7.16558 15.1397 4.86426 12.8385 4.86426 10.002ZM15.3428 5.86044C16.0053 5.86044 16.5424 5.32337 16.5424 4.66101C16.5424 3.9985 16.0053 3.46159 15.3428 3.46159C14.6805 3.46159 14.1434 3.9985 14.1434 4.66101C14.1434 5.32337 14.6805 5.86044 15.3428 5.86044Z" fill="#021442"/>
<path d="M10.002 13.3347C8.16187 13.3347 6.66927 11.8422 6.66927 10.002C6.66927 8.16172 8.16187 6.66927 10.002 6.66927C11.8422 6.66927 13.3347 8.16172 13.3347 10.002C13.3347 11.8422 11.8422 13.3347 10.002 13.3347Z" fill="#021442"/>
</svg>
