<svg width="20" height="14" viewBox="0 0 20 14" fill="none" xmlns="http://www.w3.org/2000/svg">
<path d="M18.9789 2.31374C18.7628 1.51048 18.1295 0.877273 17.3264 0.66098C15.8591 0.259521 9.99 0.259521 9.99 0.259521C9.99 0.259521 4.12113 0.259521 2.65388 0.645759C1.86619 0.861824 1.21742 1.51059 1.00136 2.31374C0.615234 3.78087 0.615234 6.82351 0.615234 6.82351C0.615234 6.82351 0.615234 9.88148 1.00136 11.3333C1.21765 12.1364 1.85074 12.7696 2.654 12.9859C4.13658 13.3875 9.99023 13.3875 9.99023 13.3875C9.99023 13.3875 15.8591 13.3875 17.3264 13.0013C18.1296 12.7851 18.7628 12.1519 18.9791 11.3487C19.3651 9.88148 19.3651 6.83896 19.3651 6.83896C19.3651 6.83896 19.3806 3.78087 18.9789 2.31374ZM8.12141 9.63441V4.01261L13.0019 6.82351L8.12141 9.63441Z" fill="#021442"/>
</svg>
